#!OML:ASF X:\für Bonn\!DataBase\2005_08_11_Bastian_Final\c3d\Bastian.ASF
:FULLY-SPECIFIED
:DEGREES
145
root 1.58181 16.8713 18.6533 -555.57 -24.188 -175.89
lowerback 50.7306 -1.84247 12.6872
upperback 19.8853 -5.53124 2.5797
thorax 2.04709 -5.56481 -1.25546
lowerneck -5.37948 -11.5216 -8.88276
upperneck -20.6082 -15.002 17.332
head -3.14666 -8.78701 6.79391
rclavicle -1.35174e-014 -2.8625e-014
rhumerus -2.84896 16.3544 -72.9234
rradius 39.4578
rwrist -9.50802
rhand -16.5208 5.11976
rfingers 7.12502
rthumb 9.69773 -24.637
lclavicle -1.35174e-014 -2.8625e-014
lhumerus -17.0699 -7.48886 80.5293
lradius 31.29
lwrist 28.6964
lhand -9.63758 -12.7591
lfingers 7.12502
lthumb 16.3326 16.5732
rfemur -14.7599 -12.8785 23.1877
rtibia 42.1181
rfoot -12.1605 -5.38448
rtoes -16.8224
lfemur -15.8941 1.94419 -20.1924
ltibia 29.3414
lfoot -0.251082 -6.69165
ltoes -14.0379
146
root 1.57156 16.8512 18.6419 -555.62 -23.8399 -175.767
lowerback 51.2219 -1.82354 12.9104
upperback 19.9531 -5.49501 2.57003
thorax 2.09201 -5.57976 -1.35553
lowerneck -5.68947 -11.516 -8.96568
upperneck -20.5678 -14.9733 17.5119
head -3.06341 -8.77937 6.8355
rclavicle 2.82274e-014 -3.16068e-014
rhumerus -2.23948 16.2946 -72.6866
rradius 39.3455
rwrist -9.60892
rhand -16.615 5.13088
rfingers 7.12502
rthumb 9.60679 -24.6301
lclavicle 2.82274e-014 -3.16068e-014
lhumerus -16.7563 -7.6867 80.4965
lradius 30.9358
lwrist 28.2091
lhand -9.64146 -12.7772
lfingers 7.12502
lthumb 16.3289 16.5553
rfemur -14.9168 -12.9871 23.362
rtibia 42.4683
rfoot -12.4515 -5.12248
rtoes -17.486
lfemur -16.139 1.74473 -20.1521
ltibia 29.1708
lfoot 0.122195 -6.54288
ltoes -14.3245
147
root 1.56088 16.8295 18.63 -555.674 -23.4914 -175.617
lowerback 51.6799 -1.8268 13.1734
upperback 20.039 -5.47346 2.51695
thorax 2.16094 -5.59198 -1.51828
lowerneck -5.975 -11.5094 -8.95572
upperneck -20.5666 -14.9494 17.6719
head -3.0049 -8.78236 6.86232
rclavicle -1.27222e-014 -6.83819e-014
rhumerus -1.66027 16.1761 -72.5714
rradius 39.2498
rwrist -9.6367
rhand -16.7204 5.14437
rfingers 7.12502
rthumb 9.5051 -24.6213
lclavicle -1.27222e-014 -6.83819e-014
lhumerus -16.4057 -8.04359 80.3869
lradius 30.5798
lwrist 27.8314
lhand -9.65604 -12.7172
lfingers 7.12502
lthumb 16.3148 16.6165
rfemur -15.0809 -13.104 23.5637
rtibia 42.8342
rfoot -12.7548 -4.84188
rtoes -18.1319
lfemur -16.4016 1.65883 -20.0673
ltibia 29.117
lfoot 0.498025 -6.51413
ltoes -14.2715
148
root 1.54896 16.8071 18.6194 -555.715 -23.1466 -175.493
lowerback 52.1575 -1.8278 13.3851
upperback 20.1055 -5.46453 2.47716
thorax 2.20679 -5.61651 -1.63629
lowerneck -6.18348 -11.4923 -9.10014
upperneck -20.6069 -14.9016 17.9068
head -2.95363 -8.77145 6.94385
rclavicle 3.57812e-014 1.53064e-014
rhumerus -1.08233 16.0762 -72.4306
rradius 39.148
rwrist -9.67558
rhand -16.7598 5.21908
rfingers 7.12502
rthumb 9.46713 -24.5483
lclavicle 3.57812e-014 1.53064e-014
lhumerus -16.0919 -8.26781 80.3091
lradius 30.2466
lwrist 27.4529
lhand -9.63354 -12.6827
lfingers 7.12502
lthumb 16.3365 16.6492
rfemur -15.258 -13.2 23.7283
rtibia 43.2119
rfoot -13.0463 -4.57539
rtoes -18.6876
lfemur -16.6828 1.60039 -19.999
ltibia 29.165
lfoot 0.808476 -6.50855
ltoes -14.115
149
root 1.53672 16.7845 18.6075 -555.772 -22.7876 -175.347
lowerback 52.611 -1.82658 13.6207
upperback 20.1916 -5.45165 2.41955
thorax 2.27983 -5.63499 -1.78917
lowerneck -6.41228 -11.4819 -9.17794
upperneck -20.6477 -14.8676 18.1148
head -2.90591 -8.77036 7.00574
rclavicle -2.78299e-015 -1.37161e-014
rhumerus -0.557103 16.0048 -72.3327
rradius 39.115
rwrist -9.78319
rhand -16.8156 5.21674
rfingers 7.12502
rthumb 9.41326 -24.5531
lclavicle -2.78299e-015 -1.37161e-014
lhumerus -15.7959 -8.64418 80.1806
lradius 29.9874
lwrist 27.235
lhand -9.59401 -12.608
lfingers 7.12502
lthumb 16.3746 16.7208
rfemur -15.4188 -13.2741 23.9243
rtibia 43.6039
rfoot -13.353 -4.35323
rtoes -19.3919
lfemur -16.9639 1.57603 -19.8792
ltibia 29.309
lfoot 1.06978 -6.55264
ltoes -13.3848
